<svg fill="none" height="192" viewBox="0 0 192 192" width="192" xmlns="http://www.w3.org/2000/svg"><path d="m34 102c0-8.837 7.163-16 16-16h92c8.837 0 16 7.163 16 16v52c0 8.837-7.163 16-16 16h-92c-8.837 0-16-7.163-16-16zm0-48c0-8.837 7.163-16 16-16h92c8.837 0 16 7.163 16 16v16c0 8.837-7.163 16-16 16h-92c-8.837 0-16-7.163-16-16z" stroke="#000" stroke-width="12"/><path d="m36 40-14-18m134 18 14-18" stroke="#000" stroke-linecap="round" stroke-width="12"/><circle cx="66" cy="62" fill="#000" r="9.5"/><circle cx="66" cy="62" r="9.5" stroke="#000"/><circle cx="66" cy="62" r="9.5" stroke="#000" stroke-opacity=".2"/><circle cx="126" cy="62" fill="#000" r="9.5"/><g stroke="#000"><circle cx="126" cy="62" r="9.5"/><circle cx="126" cy="62" r="9.5" stroke-opacity=".2"/><path d="m78.202 140.931a21.994 21.994 0 0 0 24.596 7.992 21.997 21.997 0 0 0 0-41.846 21.994 21.994 0 0 0 -24.596 7.992" stroke-linecap="round" stroke-width="12"/></g></svg>